<svg width="24" height="24" viewBox="0 0 24 24" fill="none" xmlns="http://www.w3.org/2000/svg">
<path d="M9 21.75C8.85193 21.7493 8.70739 21.7047 8.5846 21.622C8.46181 21.5392 8.36626 21.422 8.31 21.285L4.7475 12.75H1.5V11.25H5.25C5.39807 11.2507 5.54261 11.2953 5.6654 11.378C5.78819 11.4608 5.88374 11.578 5.94 11.715L9 18.96L15.045 2.7375C15.0986 2.59395 15.195 2.47027 15.321 2.38311C15.447 2.29595 15.5968 2.2495 15.75 2.25C15.9047 2.2527 16.0547 2.30316 16.1796 2.39446C16.3044 2.48576 16.398 2.61344 16.4475 2.76L19.29 11.25H22.5V12.75H18.75C18.5928 12.7504 18.4394 12.7014 18.3115 12.6099C18.1837 12.5183 18.0878 12.389 18.0375 12.24L15.75 5.25L9.705 21.2625C9.65137 21.406 9.55505 21.5297 9.429 21.6169C9.30296 21.704 9.15324 21.7505 9 21.75Z" fill="white"/>
</svg>
