<svg width="177" height="177" viewBox="0 0 177 177" fill="none" xmlns="http://www.w3.org/2000/svg">
<path d="M73.75 44.25H103.25H73.75ZM51.625 44.25H36.875V143.812H140.125V44.25H125.375H51.625ZM81.125 73.75H51.625V88.5H81.125V73.75ZM118 51.625V36.875C118 34.8395 116.348 33.1875 114.312 33.1875C112.277 33.1875 110.625 34.8395 110.625 36.875V51.625C110.625 53.6605 112.277 55.3125 114.312 55.3125C116.352 55.3125 118 53.6605 118 51.625ZM66.375 51.625V36.875C66.375 34.8395 64.723 33.1875 62.6875 33.1875C60.652 33.1875 59 34.8395 59 36.875V51.625C59 53.6605 60.652 55.3125 62.6875 55.3125C64.723 55.3125 66.375 53.6605 66.375 51.625ZM81.125 106.938H51.625V121.688H81.125V106.938ZM125.375 73.75H95.875V88.5H125.375V73.75ZM125.375 106.938H95.875V121.688H125.375V106.938Z" stroke="#0B6B74" stroke-width="3.72" stroke-miterlimit="10" stroke-linejoin="round"/>
</svg>
