<svg width="24" height="24" viewBox="0 0 24 24" fill="none" xmlns="http://www.w3.org/2000/svg">
<path d="M11.25 18H8.25V19.5H11.25V18Z" fill="white"/>
<path d="M6.75 18H3.75V19.5H6.75V18Z" fill="white"/>
<path d="M20.25 18H17.25V19.5H20.25V18Z" fill="white"/>
<path d="M15.75 18H12.75V19.5H15.75V18Z" fill="white"/>
<path d="M6.75002 16.5C7.09602 16.0308 7.54828 15.6502 8.06974 15.3894C8.59121 15.1287 9.16703 14.9953 9.75002 15H14.25C14.83 15.0122 15.4 15.153 15.9188 15.4125C16.4376 15.6719 16.8923 16.0433 17.25 16.5H18.975C18.5602 15.5978 17.8936 14.8347 17.0554 14.3025C16.2171 13.7703 15.2429 13.4916 14.25 13.5H9.75002C8.75712 13.4916 7.78293 13.7703 6.94467 14.3025C6.10642 14.8347 5.4398 15.5978 5.02502 16.5H6.75002Z" fill="white"/>
<path d="M19.5 21H18V22.5H19.5V21Z" fill="white"/>
<path d="M6 21H4.5V22.5H6V21Z" fill="white"/>
<path d="M12 12C10.9617 12 9.94662 11.6921 9.08326 11.1152C8.2199 10.5383 7.54699 9.7184 7.14963 8.75909C6.75227 7.79978 6.64831 6.74418 6.85088 5.72578C7.05345 4.70738 7.55347 3.77192 8.28769 3.03769C9.02192 2.30347 9.95738 1.80345 10.9758 1.60088C11.9942 1.39831 13.0498 1.50227 14.0091 1.89963C14.9684 2.29699 15.7883 2.9699 16.3652 3.83326C16.9421 4.69662 17.25 5.71165 17.25 6.75C17.25 8.14239 16.6969 9.47775 15.7123 10.4623C14.7277 11.4469 13.3924 12 12 12ZM12 3C11.0054 3 10.0516 3.39509 9.34835 4.09835C8.64509 4.80161 8.25 5.75544 8.25 6.75C8.25 7.74456 8.64509 8.69839 9.34835 9.40165C10.0516 10.1049 11.0054 10.5 12 10.5C12.9946 10.5 13.9484 10.1049 14.6517 9.40165C15.3549 8.69839 15.75 7.74456 15.75 6.75C15.75 5.75544 15.3549 4.80161 14.6517 4.09835C13.9484 3.39509 12.9946 3 12 3Z" fill="white"/>
</svg>
