<svg width="115" height="115" viewBox="0 0 115 115" fill="none" xmlns="http://www.w3.org/2000/svg">
<path d="M67.9098 20.625H85.5619H67.9098ZM29.4344 20.625H47.0607H29.4344ZM112.812 112.812C112.812 87.4757 93.5269 66.2615 69.9011 60.6602C80.5911 55.8996 88.0583 45.2022 88.0583 32.7458C88.0583 15.8681 74.3777 2.1875 57.5 2.1875C40.6223 2.1875 26.938 15.8681 26.938 32.7458C26.938 45.2059 34.4015 55.9033 45.0952 60.6602C21.4694 66.2615 2.1875 87.4757 2.1875 112.812H112.812ZM61.1875 98.0625H90.6875H61.1875ZM75.9375 83.3014V112.801V83.3014ZM57.5 13.25C51.3898 13.25 46.4375 18.2023 46.4375 24.3125C46.4375 30.4227 51.3898 35.375 57.5 35.375C63.6102 35.375 68.5625 30.4227 68.5625 24.3125C68.5625 18.2023 63.6102 13.25 57.5 13.25Z" stroke="#0B6B74" stroke-width="3.72" stroke-miterlimit="10" stroke-linejoin="round"/>
</svg>
