<svg width="14" height="14" viewBox="0 0 14 14" fill="none" xmlns="http://www.w3.org/2000/svg">
<path d="M7.43751 8.71971C8.32084 8.60842 9.12856 8.16468 9.69624 7.47882C10.2639 6.79297 10.5489 5.91655 10.4931 5.02798C10.4374 4.13941 10.0451 3.30549 9.39613 2.69597C8.74717 2.08646 7.89032 1.74716 7.00001 1.74716C6.10969 1.74716 5.25284 2.08646 4.60388 2.69597C3.95491 3.30549 3.56263 4.13941 3.50687 5.02798C3.45112 5.91655 3.73609 6.79297 4.30377 7.47882C4.87145 8.16468 5.67917 8.60842 6.56251 8.71971V9.62503H4.375V10.5H6.56251V12.25H7.43751V10.5H9.62501V9.62503H7.43751V8.71971ZM4.375 5.25003C4.375 4.73085 4.52896 4.22334 4.8174 3.79166C5.10584 3.35998 5.51581 3.02353 5.99546 2.82485C6.47512 2.62617 7.00292 2.57418 7.51212 2.67547C8.02132 2.77675 8.48905 3.02676 8.85616 3.39387C9.22327 3.76099 9.47328 4.22872 9.57457 4.73792C9.67585 5.24712 9.62387 5.77492 9.42519 6.25457C9.22651 6.73423 8.89006 7.1442 8.45838 7.43264C8.0267 7.72108 7.51918 7.87503 7.00001 7.87503C6.30405 7.87426 5.63681 7.59746 5.14469 7.10534C4.65258 6.61322 4.37577 5.94599 4.375 5.25003Z" fill="black"/>
</svg>
