<svg width="14" height="14" viewBox="0 0 14 14" fill="none" xmlns="http://www.w3.org/2000/svg">
<path d="M7.87501 1.75V2.625H10.7563L7.39266 5.98872C6.68704 5.44048 5.79898 5.18181 4.90933 5.26537C4.01967 5.34893 3.19532 5.76845 2.60412 6.43849C2.01293 7.10853 1.69935 7.97872 1.72724 8.87186C1.75513 9.76499 2.12239 10.6139 2.75424 11.2458C3.38609 11.8776 4.23502 12.2449 5.12815 12.2728C6.02129 12.3007 6.89147 11.9871 7.56151 11.3959C8.23156 10.8047 8.65107 9.98033 8.73463 9.09068C8.8182 8.20102 8.55952 7.31297 8.01129 6.60734L11.375 3.24367V6.125H12.25V1.75H7.87501ZM5.25001 11.375C4.73083 11.375 4.22331 11.221 3.79163 10.9326C3.35996 10.6442 3.0235 10.2342 2.82482 9.75454C2.62614 9.27489 2.57416 8.74709 2.67545 8.23789C2.77673 7.72869 3.02674 7.26096 3.39385 6.89384C3.76096 6.52673 4.22869 6.27672 4.73789 6.17544C5.24709 6.07415 5.77489 6.12614 6.25455 6.32482C6.73421 6.5235 7.14418 6.85995 7.43261 7.29163C7.72105 7.72331 7.87501 8.23082 7.87501 8.75C7.87424 9.44596 7.59743 10.1132 7.10532 10.6053C6.6132 11.0974 5.94597 11.3742 5.25001 11.375Z" fill="black"/>
</svg>
