<svg width="142" height="25" viewBox="0 0 142 25" fill="none" xmlns="http://www.w3.org/2000/svg">
<path d="M37.624 19.192C36.7173 19.192 35.944 19.0213 35.304 18.68C34.664 18.328 34.12 17.848 33.672 17.24L34.664 16.408C35.0587 16.9307 35.496 17.3307 35.976 17.608C36.456 17.8747 37.0213 18.008 37.672 18.008C38.472 18.008 39.08 17.816 39.496 17.432C39.9227 17.048 40.136 16.536 40.136 15.896C40.136 15.3627 39.976 14.952 39.656 14.664C39.336 14.376 38.808 14.1467 38.072 13.976L37.16 13.768C36.136 13.5333 35.352 13.1813 34.808 12.712C34.2747 12.232 34.008 11.56 34.008 10.696C34.008 10.2053 34.0987 9.768 34.28 9.384C34.4613 9 34.712 8.68 35.032 8.424C35.3627 8.168 35.752 7.976 36.2 7.848C36.6587 7.70933 37.16 7.64 37.704 7.64C38.5467 7.64 39.2667 7.79467 39.864 8.104C40.472 8.41333 40.984 8.86667 41.4 9.464L40.392 10.2C40.0827 9.77333 39.7093 9.43733 39.272 9.192C38.8347 8.94667 38.2907 8.824 37.64 8.824C36.9253 8.824 36.36 8.97867 35.944 9.288C35.5387 9.58667 35.336 10.04 35.336 10.648C35.336 11.1813 35.5067 11.5867 35.848 11.864C36.2 12.1307 36.728 12.344 37.432 12.504L38.344 12.712C39.4427 12.9573 40.2373 13.3307 40.728 13.832C41.2187 14.3333 41.464 15 41.464 15.832C41.464 16.344 41.3733 16.808 41.192 17.224C41.0213 17.64 40.7707 17.992 40.44 18.28C40.1093 18.568 39.704 18.792 39.224 18.952C38.7547 19.112 38.2213 19.192 37.624 19.192ZM46.4409 19.192C45.8755 19.192 45.3635 19.0907 44.9049 18.888C44.4569 18.6853 44.0675 18.3973 43.7369 18.024C43.4169 17.64 43.1662 17.1867 42.9849 16.664C42.8142 16.1307 42.7289 15.5333 42.7289 14.872C42.7289 14.2213 42.8142 13.6293 42.9849 13.096C43.1662 12.5627 43.4169 12.1093 43.7369 11.736C44.0675 11.352 44.4569 11.0587 44.9049 10.856C45.3635 10.6533 45.8755 10.552 46.4409 10.552C46.9955 10.552 47.4915 10.6533 47.9289 10.856C48.3662 11.0587 48.7395 11.3413 49.0489 11.704C49.3582 12.056 49.5929 12.4773 49.7529 12.968C49.9235 13.4587 50.0089 13.9973 50.0089 14.584V15.192H44.0729V15.576C44.0729 15.928 44.1262 16.2587 44.2329 16.568C44.3502 16.8667 44.5102 17.128 44.7129 17.352C44.9262 17.576 45.1822 17.752 45.4809 17.88C45.7902 18.008 46.1369 18.072 46.5209 18.072C47.0435 18.072 47.4969 17.9493 47.8809 17.704C48.2755 17.4587 48.5795 17.1067 48.7929 16.648L49.7049 17.304C49.4382 17.8693 49.0222 18.328 48.4569 18.68C47.8915 19.0213 47.2195 19.192 46.4409 19.192ZM46.4409 11.624C46.0889 11.624 45.7689 11.688 45.4809 11.816C45.1929 11.9333 44.9422 12.104 44.7289 12.328C44.5262 12.552 44.3662 12.8187 44.2489 13.128C44.1315 13.4267 44.0729 13.7573 44.0729 14.12V14.232H48.6329V14.056C48.6329 13.32 48.4302 12.7333 48.0249 12.296C47.6302 11.848 47.1022 11.624 46.4409 11.624ZM51.7981 19V10.744H53.0781V12.264H53.1581C53.3075 11.8693 53.5741 11.5173 53.9581 11.208C54.3421 10.8987 54.8701 10.744 55.5421 10.744H56.0381V12.024H55.2861C54.5928 12.024 54.0488 12.1573 53.6541 12.424C53.2701 12.68 53.0781 13.0053 53.0781 13.4V19H51.7981ZM60.379 19.192C59.8137 19.192 59.3017 19.0907 58.843 18.888C58.395 18.6853 58.0057 18.3973 57.675 18.024C57.355 17.64 57.1043 17.1867 56.923 16.664C56.7523 16.1307 56.667 15.5333 56.667 14.872C56.667 14.2213 56.7523 13.6293 56.923 13.096C57.1043 12.5627 57.355 12.1093 57.675 11.736C58.0057 11.352 58.395 11.0587 58.843 10.856C59.3017 10.6533 59.8137 10.552 60.379 10.552C60.9337 10.552 61.4297 10.6533 61.867 10.856C62.3043 11.0587 62.6777 11.3413 62.987 11.704C63.2963 12.056 63.531 12.4773 63.691 12.968C63.8617 13.4587 63.947 13.9973 63.947 14.584V15.192H58.011V15.576C58.011 15.928 58.0643 16.2587 58.171 16.568C58.2883 16.8667 58.4483 17.128 58.651 17.352C58.8643 17.576 59.1203 17.752 59.419 17.88C59.7283 18.008 60.075 18.072 60.459 18.072C60.9817 18.072 61.435 17.9493 61.819 17.704C62.2137 17.4587 62.5177 17.1067 62.731 16.648L63.643 17.304C63.3763 17.8693 62.9603 18.328 62.395 18.68C61.8297 19.0213 61.1577 19.192 60.379 19.192ZM60.379 11.624C60.027 11.624 59.707 11.688 59.419 11.816C59.131 11.9333 58.8803 12.104 58.667 12.328C58.4643 12.552 58.3043 12.8187 58.187 13.128C58.0697 13.4267 58.011 13.7573 58.011 14.12V14.232H62.571V14.056C62.571 13.32 62.3683 12.7333 61.963 12.296C61.5683 11.848 61.0403 11.624 60.379 11.624ZM65.7362 19V10.744H67.0162V12.088H67.0802C67.2829 11.6187 67.5656 11.2453 67.9282 10.968C68.3016 10.6907 68.7976 10.552 69.4162 10.552C70.2696 10.552 70.9416 10.8293 71.4322 11.384C71.9336 11.928 72.1842 12.7013 72.1842 13.704V19H70.9042V13.928C70.9042 12.4453 70.2802 11.704 69.0322 11.704C68.7762 11.704 68.5256 11.736 68.2802 11.8C68.0456 11.864 67.8322 11.96 67.6402 12.088C67.4482 12.216 67.2936 12.3813 67.1762 12.584C67.0696 12.776 67.0162 13.0053 67.0162 13.272V19H65.7362ZM75.15 8.808C74.8727 8.808 74.67 8.744 74.542 8.616C74.4247 8.47733 74.366 8.30133 74.366 8.088V7.88C74.366 7.66667 74.4247 7.496 74.542 7.368C74.67 7.22933 74.8727 7.16 75.15 7.16C75.4273 7.16 75.6247 7.22933 75.742 7.368C75.87 7.496 75.934 7.66667 75.934 7.88V8.088C75.934 8.30133 75.87 8.47733 75.742 8.616C75.6247 8.744 75.4273 8.808 75.15 8.808ZM74.51 10.744H75.79V19H74.51V10.744ZM80.014 19C79.566 19 79.2247 18.8773 78.99 18.632C78.766 18.376 78.654 18.0453 78.654 17.64V11.864H77.294V10.744H78.062C78.3393 10.744 78.526 10.6907 78.622 10.584C78.7287 10.4667 78.782 10.2693 78.782 9.992V8.456H79.934V10.744H81.742V11.864H79.934V17.88H81.614V19H80.014ZM88.5674 10.744H89.8314L86.1354 20.92C86.0394 21.1653 85.9434 21.368 85.8474 21.528C85.7514 21.6987 85.634 21.832 85.4954 21.928C85.3567 22.024 85.1807 22.0933 84.9674 22.136C84.7647 22.1787 84.514 22.2 84.2154 22.2H83.5594V21.08H84.8554L85.4794 19.32L82.3914 10.744H83.6714L85.6554 16.36L86.0394 17.704H86.1194L86.5674 16.36L88.5674 10.744ZM101.165 14.424H96.909V19H94.477V7.832H96.909V12.28H101.165V7.832H103.597V19H101.165V14.424ZM109.111 19.192C108.471 19.192 107.9 19.0907 107.399 18.888C106.898 18.6747 106.471 18.3813 106.119 18.008C105.778 17.624 105.516 17.16 105.335 16.616C105.164 16.072 105.079 15.464 105.079 14.792C105.079 14.1307 105.164 13.5333 105.335 13C105.506 12.456 105.756 11.992 106.087 11.608C106.428 11.224 106.844 10.9307 107.335 10.728C107.826 10.5147 108.386 10.408 109.015 10.408C109.708 10.408 110.3 10.5253 110.791 10.76C111.292 10.9947 111.698 11.3093 112.007 11.704C112.327 12.0987 112.556 12.5573 112.695 13.08C112.844 13.592 112.919 14.1307 112.919 14.696V15.4H107.527V15.528C107.527 16.0827 107.676 16.5253 107.975 16.856C108.274 17.176 108.743 17.336 109.383 17.336C109.874 17.336 110.274 17.24 110.583 17.048C110.892 16.8453 111.18 16.6053 111.447 16.328L112.631 17.8C112.258 18.2373 111.767 18.5787 111.159 18.824C110.562 19.0693 109.879 19.192 109.111 19.192ZM109.063 12.152C108.583 12.152 108.204 12.312 107.927 12.632C107.66 12.9413 107.527 13.3573 107.527 13.88V14.008H110.471V13.864C110.471 13.352 110.354 12.9413 110.119 12.632C109.895 12.312 109.543 12.152 109.063 12.152ZM120.48 19C120.053 19 119.696 18.8667 119.408 18.6C119.13 18.3333 118.954 17.976 118.88 17.528H118.784C118.656 18.072 118.373 18.488 117.936 18.776C117.498 19.0533 116.96 19.192 116.32 19.192C115.477 19.192 114.832 18.968 114.384 18.52C113.936 18.072 113.712 17.48 113.712 16.744C113.712 15.8587 114.032 15.2027 114.672 14.776C115.322 14.3387 116.202 14.12 117.312 14.12H118.64V13.592C118.64 13.1867 118.533 12.8667 118.32 12.632C118.106 12.3867 117.749 12.264 117.248 12.264C116.778 12.264 116.405 12.3653 116.128 12.568C115.85 12.7707 115.621 13 115.44 13.256L114.032 12.008C114.373 11.5067 114.8 11.1173 115.312 10.84C115.834 10.552 116.538 10.408 117.424 10.408C118.618 10.408 119.514 10.6693 120.112 11.192C120.709 11.7147 121.008 12.4773 121.008 13.48V17.16H121.792V19H120.48ZM117.2 17.544C117.594 17.544 117.93 17.4587 118.208 17.288C118.496 17.1173 118.64 16.84 118.64 16.456V15.464H117.488C116.56 15.464 116.096 15.7787 116.096 16.408V16.648C116.096 16.9573 116.192 17.1867 116.384 17.336C116.576 17.4747 116.848 17.544 117.2 17.544ZM125.413 19C124.602 19 124.005 18.8027 123.621 18.408C123.248 18.0133 123.061 17.4427 123.061 16.696V7.16H125.429V17.16H126.485V19H125.413ZM130.45 19C129.629 19 129.005 18.792 128.578 18.376C128.162 17.96 127.954 17.352 127.954 16.552V12.44H126.77V10.6H127.362C127.682 10.6 127.901 10.5253 128.018 10.376C128.136 10.216 128.194 9.992 128.194 9.704V8.328H130.322V10.6H131.986V12.44H130.322V17.16H131.858V19H130.45ZM133.311 7.16H135.679V12.024H135.775C135.925 11.5867 136.186 11.208 136.559 10.888C136.933 10.568 137.45 10.408 138.111 10.408C138.975 10.408 139.626 10.696 140.063 11.272C140.511 11.848 140.735 12.6693 140.735 13.736V19H138.367V13.928C138.367 13.384 138.282 12.984 138.111 12.728C137.941 12.4613 137.637 12.328 137.199 12.328C137.007 12.328 136.821 12.3547 136.639 12.408C136.458 12.4507 136.293 12.5253 136.143 12.632C136.005 12.7387 135.893 12.872 135.807 13.032C135.722 13.1813 135.679 13.3573 135.679 13.56V19H133.311V7.16Z" fill="white"/>
<path d="M14.6019 20.4344C14.474 20.111 14.3348 19.9793 14.1129 20.3517C13.6766 21.104 13.2027 21.7961 12.8341 22.5634C12.7159 22.7888 12.6584 23.0411 12.6673 23.2955C12.6761 23.5499 12.7511 23.7975 12.8846 24.0142C13.0182 24.2309 13.2058 24.409 13.4291 24.5312C13.6524 24.6534 13.9036 24.7154 14.158 24.7111C15.2225 24.7111 15.8883 23.6956 15.5009 22.6048C15.2376 21.8675 14.8953 21.1604 14.6019 20.4344Z" fill="#40D1F2"/>
<path d="M9.87018 20.3216C9.72349 20.0771 9.55798 20.0357 9.43761 20.3404C9.09909 21.1905 8.7079 22.033 8.44837 22.9094C8.38561 23.1256 8.37551 23.3537 8.41894 23.5746C8.46236 23.7955 8.55804 24.0029 8.69796 24.1792C8.83788 24.3556 9.01799 24.4959 9.22323 24.5885C9.42847 24.681 9.65284 24.723 9.87766 24.7111C10.1265 24.7099 10.3709 24.6452 10.5877 24.5233C10.8046 24.4013 10.9868 24.2261 11.1171 24.0141C11.2473 23.8021 11.3214 23.5604 11.3323 23.3118C11.3431 23.0632 11.2904 22.816 11.1791 22.5935C10.8105 21.8036 10.314 21.0776 9.87018 20.3216Z" fill="#40D1F2"/>
<path d="M12.0179 7.4916C13.0335 7.4916 13.6879 6.67914 13.2253 5.96072C12.9387 5.563 12.6245 5.18593 12.2849 4.83231C12.2574 4.78551 12.2181 4.74671 12.1709 4.71977C12.1237 4.69282 12.0703 4.67865 12.016 4.67865C11.9617 4.67865 11.9083 4.69282 11.8611 4.71977C11.814 4.74671 11.7747 4.78551 11.7471 4.83231C11.4033 5.18835 11.0817 5.56519 10.7842 5.96072C10.2989 6.69043 10.9685 7.50289 12.0179 7.4916Z" fill="#28AEAD"/>
<path d="M8.32413 9.00739C9.03127 8.28521 8.92968 7.25084 8.09465 7.0703C7.60919 6.99341 7.11913 6.94942 6.62775 6.93863C6.3795 6.91983 6.2215 7.01762 6.25159 7.31477C6.25825 7.80814 6.29593 8.30061 6.36442 8.78925C6.53745 9.65813 7.59066 9.75967 8.32413 9.00739Z" fill="white"/>
<path d="M5.25119 11.4862C4.85427 11.7738 4.47727 12.088 4.12277 12.4265C4.07598 12.4541 4.03718 12.4934 4.01023 12.5406C3.98329 12.5878 3.96912 12.6411 3.96912 12.6955C3.96912 12.7498 3.98329 12.8032 4.01023 12.8503C4.03718 12.8975 4.07598 12.9368 4.12277 12.9644C4.47704 13.309 4.85402 13.6294 5.25119 13.9235C6.00346 14.4125 6.81592 13.743 6.80464 12.6936C6.79335 11.6442 5.96961 11.0235 5.25119 11.4862Z" fill="#F45F47"/>
<path d="M6.59771 18.4709C7.09108 18.4642 7.58356 18.4265 8.07219 18.358C8.94483 18.1737 9.04638 17.1205 8.29786 16.3871C7.54935 15.6536 6.54131 15.7815 6.36077 16.6165C6.28405 17.1007 6.24006 17.5896 6.2291 18.0797C6.2103 18.3317 6.30809 18.4897 6.59771 18.4709Z" fill="#5FD69A"/>
<path d="M11.9802 17.9293C10.9684 17.9293 10.3139 18.7418 10.7728 19.4602C11.0618 19.8571 11.3772 20.2341 11.7169 20.5886C11.8786 20.7805 12.0629 20.8256 12.251 20.5886C12.5959 20.2336 12.9175 19.8567 13.2139 19.4602C13.7029 18.7493 13.0334 17.9181 11.9802 17.9293Z" fill="#28AEAD"/>
<path d="M15.9184 18.3506C16.4026 18.4275 16.8914 18.4715 17.3816 18.4822C17.6298 18.501 17.7916 18.4032 17.7577 18.1061C17.7542 17.6127 17.7177 17.1202 17.6486 16.6316C17.4605 15.759 16.4111 15.6575 15.6777 16.406C14.9442 17.1545 15.0721 18.1701 15.9184 18.3506Z" fill="white"/>
<path d="M18.747 13.9348C19.1453 13.649 19.5225 13.3347 19.8754 12.9945C20.0635 12.8327 20.1086 12.6484 19.8754 12.4604C19.5214 12.1143 19.1444 11.7926 18.747 11.4974C17.9947 11.0084 17.1823 11.678 17.1935 12.7312C17.2048 13.7843 18.0323 14.3975 18.747 13.9348Z" fill="#F45F47"/>
<path d="M17.6374 8.8043C17.7172 8.32041 17.7625 7.83144 17.7728 7.34112C17.7728 7.09286 17.6938 6.93113 17.3967 6.96498C16.9033 6.96853 16.4107 7.00498 15.9222 7.07407C15.0458 7.25838 14.9442 8.31156 15.6965 9.04503C16.4488 9.7785 17.4568 9.63932 17.6374 8.8043Z" fill="#5FD69A"/>
<path d="M21.4702 17.2447C20.7668 16.91 20.0221 16.6542 19.3037 16.3457C18.9802 16.2103 18.7921 16.2141 18.8974 16.6354C19.1081 17.4591 19.2736 18.3017 19.5557 19.1028C19.6314 19.3461 19.7691 19.5654 19.9553 19.7393C20.1415 19.9132 20.3698 20.0355 20.6176 20.0944C20.8655 20.1532 21.1244 20.1465 21.3688 20.0748C21.6133 20.0032 21.8349 19.8691 22.0118 19.6859C22.7603 18.9148 22.5159 17.7299 21.4702 17.2447Z" fill="#40D1F2"/>
<path d="M18.4084 20.2801C17.5885 19.983 16.7233 19.8175 15.877 19.5993C15.5987 19.5316 15.452 19.5993 15.5836 19.9152C15.9598 20.7615 16.2607 21.6304 16.712 22.4316C16.8203 22.6288 16.9741 22.7973 17.1607 22.923C17.3473 23.0487 17.5613 23.1279 17.7848 23.154C18.0082 23.1801 18.2347 23.1525 18.4453 23.0732C18.6558 22.994 18.8444 22.8656 18.9952 22.6987C19.1704 22.5212 19.2972 22.302 19.3638 22.0617C19.4304 21.8215 19.4345 21.5682 19.3757 21.3259C19.317 21.0836 19.1973 20.8603 19.028 20.6773C18.8587 20.4943 18.6454 20.3576 18.4084 20.2801Z" fill="#40D1F2"/>
<path d="M19.7249 10.0982C19.3977 10.2261 19.2698 10.3652 19.6422 10.5872C20.3756 11.0235 21.0865 11.4974 21.8501 11.866C22.0755 11.9842 22.3278 12.0417 22.5822 12.0328C22.8365 12.0239 23.0842 11.9491 23.3009 11.8155C23.5175 11.6819 23.6957 11.4943 23.8179 11.271C23.9401 11.0477 24.0021 10.7965 23.9978 10.542C23.9978 9.47756 22.986 8.81179 21.8914 9.19921C21.158 9.4738 20.4508 9.81609 19.7249 10.0982Z" fill="#40D1F2"/>
<path d="M21.8839 13.5324C21.094 13.9085 20.3793 14.3975 19.627 14.8413C19.3826 14.988 19.3374 15.1535 19.627 15.2739C20.4809 15.6124 21.3196 16.0036 22.1998 16.2631C22.4158 16.326 22.6438 16.3362 22.8646 16.2928C23.0853 16.2494 23.2925 16.1537 23.4686 16.0137C23.6448 15.8737 23.7848 15.6934 23.8768 15.4881C23.9689 15.2828 24.0103 15.0585 23.9978 14.8338C23.9973 14.5851 23.9332 14.3407 23.8117 14.1237C23.6902 13.9067 23.5152 13.7244 23.3035 13.594C23.0917 13.4637 22.8502 13.3895 22.6017 13.3788C22.3533 13.368 22.1061 13.4208 21.8839 13.5324Z" fill="#40D1F2"/>
<path d="M15.9184 5.81027C16.7422 5.60339 17.5847 5.43413 18.3859 5.15579C18.6289 5.07967 18.8478 4.94163 19.0212 4.75523C19.1947 4.56883 19.3166 4.3405 19.3751 4.09269C19.4335 3.84488 19.4264 3.58611 19.3545 3.34186C19.2827 3.09761 19.1485 2.87629 18.9651 2.69962C18.2128 1.94735 17.0243 2.1956 16.5278 3.24126C16.193 3.94464 15.9372 4.6894 15.6288 5.40782C15.4858 5.7313 15.4896 5.91935 15.9184 5.81027Z" fill="#40D1F2"/>
<path d="M19.2058 9.1278C20.0483 8.75166 20.921 8.44699 21.7222 7.99938C21.9198 7.89141 22.0886 7.73758 22.2144 7.55079C22.3403 7.36401 22.4194 7.14975 22.4452 6.92602C22.471 6.7023 22.4427 6.47564 22.3627 6.26512C22.2827 6.0546 22.1533 5.86635 21.9855 5.71622C21.8092 5.5408 21.591 5.41335 21.3516 5.34594C21.1122 5.27853 20.8596 5.27339 20.6177 5.33104C20.3758 5.38869 20.1526 5.50723 19.9694 5.67536C19.7861 5.84349 19.6488 6.05565 19.5706 6.29173C19.2735 7.10795 19.108 7.97682 18.8898 8.82313C18.8184 9.11275 18.9049 9.25945 19.2058 9.1278Z" fill="#40D1F2"/>
<path d="M9.39621 4.98645C9.52786 5.31369 9.66325 5.44158 9.88517 5.06921C10.3215 4.31693 10.7992 3.62484 11.1678 2.85752C11.2851 2.63221 11.3418 2.38032 11.3325 2.1265C11.3232 1.87268 11.2481 1.62563 11.1147 1.40952C10.9812 1.19341 10.794 1.01566 10.5712 0.893662C10.3484 0.771661 10.0978 0.709586 9.8438 0.713525C8.77933 0.713525 8.11358 1.72535 8.501 2.81991C8.77182 3.55338 9.10659 4.2605 9.39621 4.98645Z" fill="#40D1F2"/>
<path d="M14.1318 5.0993C14.2785 5.34379 14.4402 5.38893 14.5644 5.0993C14.9029 4.24547 15.2941 3.40667 15.5499 2.52651C15.6135 2.31076 15.6244 2.08286 15.5816 1.86202C15.5387 1.64119 15.4434 1.43389 15.3036 1.25762C15.1638 1.08135 14.9838 0.941263 14.7785 0.849189C14.5733 0.757114 14.3489 0.715746 14.1243 0.728569C13.8756 0.72908 13.6312 0.793131 13.4142 0.914641C13.1972 1.03615 13.0149 1.2111 12.8845 1.42287C12.7541 1.63463 12.68 1.8762 12.6692 2.12465C12.6584 2.3731 12.7113 2.6202 12.8229 2.84247C13.1915 3.61732 13.688 4.34326 14.1318 5.0993Z" fill="#40D1F2"/>
<path d="M2.53168 8.19114C3.23505 8.5259 3.97981 8.78168 4.69823 9.09011C5.02171 9.22552 5.20978 9.22175 5.1007 8.80048C4.89383 7.97674 4.72457 7.13419 4.44623 6.33301C4.3701 6.09005 4.23204 5.87109 4.04564 5.69766C3.85924 5.52423 3.63091 5.4023 3.38311 5.34386C3.1353 5.28542 2.87655 5.29247 2.6323 5.36434C2.38805 5.43621 2.1667 5.57043 1.99004 5.75377C1.24904 6.50605 1.48601 7.69087 2.53168 8.19114Z" fill="#40D1F2"/>
<path d="M5.59335 5.14074C6.40957 5.43789 7.27846 5.60339 8.12477 5.82155C8.40312 5.89301 8.54606 5.82154 8.41817 5.50558C8.04203 4.65927 7.73736 3.79039 7.28976 2.98922C7.18178 2.79158 7.0279 2.62276 6.84112 2.49694C6.65434 2.37112 6.44008 2.29199 6.21635 2.26619C5.99262 2.24039 5.76599 2.26867 5.55547 2.34868C5.34495 2.42868 5.1567 2.55807 5.00658 2.72594C4.83133 2.90299 4.70432 3.12195 4.63765 3.36198C4.57097 3.60201 4.56686 3.8551 4.62569 4.09718C4.68451 4.33925 4.80431 4.56224 4.9737 4.7449C5.14309 4.92757 5.3564 5.06385 5.59335 5.14074Z" fill="#40D1F2"/>
<path d="M4.27689 15.3153C4.60037 15.1837 4.72827 15.0445 4.35589 14.8226C3.62618 14.39 2.91529 13.9123 2.14796 13.5437C1.92253 13.4255 1.67024 13.3681 1.41587 13.3769C1.1615 13.3858 0.913818 13.4607 0.697156 13.5942C0.480495 13.7278 0.302297 13.9155 0.180104 14.1387C0.0579123 14.362 -0.00408201 14.6132 0.000208495 14.8677C0.000208495 15.9322 1.01579 16.5979 2.10659 16.2105C2.84382 15.951 3.55095 15.6049 4.27689 15.3153Z" fill="#40D1F2"/>
<path d="M2.11783 11.8885C2.90395 11.5124 3.62238 11.0234 4.37465 10.5795C4.6229 10.4329 4.66428 10.2711 4.37465 10.147C3.52082 9.80845 2.68203 9.41727 1.80563 9.15773C1.58941 9.09498 1.36134 9.0849 1.14043 9.12832C0.919521 9.17175 0.712213 9.26741 0.535839 9.40733C0.359465 9.54725 0.219132 9.72736 0.126596 9.9326C0.0340608 10.1378 -0.00799082 10.3622 0.00393363 10.5871C0.00444405 10.8357 0.0684949 11.0802 0.190005 11.2972C0.311516 11.5141 0.48645 11.6965 0.698218 11.8268C0.909987 11.9572 1.15156 12.0313 1.40001 12.0421C1.64846 12.0529 1.89555 12 2.11783 11.8885Z" fill="#40D1F2"/>
<path d="M8.09097 19.6107C7.26346 19.8176 6.4247 19.9869 5.62352 20.2652C5.38027 20.3409 5.16093 20.4786 4.98707 20.6648C4.81321 20.851 4.69084 21.0793 4.63201 21.3271C4.57317 21.575 4.57989 21.8339 4.65152 22.0784C4.72315 22.3228 4.85722 22.5445 5.04052 22.7214C5.79279 23.4736 6.98136 23.2254 7.48162 22.1797C7.81639 21.4764 8.07216 20.7316 8.37683 20.0132C8.516 19.6897 8.51224 19.5016 8.09097 19.6107Z" fill="#40D1F2"/>
<path d="M4.796 16.2931C3.94969 16.6693 3.08081 16.9739 2.27587 17.4216C2.0789 17.5301 1.91075 17.6842 1.78545 17.871C1.66014 18.0578 1.58132 18.2718 1.55555 18.4953C1.52978 18.7187 1.55782 18.945 1.63733 19.1554C1.71683 19.3658 1.8455 19.5542 2.01259 19.7047C2.18926 19.88 2.40772 20.0074 2.64732 20.0747C2.88693 20.1421 3.13977 20.1472 3.3819 20.0896C3.62403 20.0319 3.84747 19.9135 4.03107 19.7455C4.21467 19.5774 4.35238 19.3653 4.43116 19.1292C4.7283 18.313 4.89004 17.4441 5.1082 16.5978C5.17967 16.3082 5.09691 16.1615 4.796 16.2931Z" fill="#40D1F2"/>
</svg>
