<svg width="24" height="24" viewBox="0 0 24 24" fill="none" xmlns="http://www.w3.org/2000/svg">
<path d="M21.525 15.225L19.5 13.2V9.75C19.4975 7.88758 18.8071 6.09172 17.5612 4.70739C16.3153 3.32306 14.6018 2.44789 12.75 2.25V0.75H11.25V2.25C9.4032 2.46053 7.69727 3.33944 6.45386 4.72102C5.21044 6.10259 4.51546 7.89135 4.49995 9.75V13.2L2.47495 15.225C2.40175 15.2911 2.34373 15.3722 2.30489 15.4628C2.26605 15.5535 2.2473 15.6514 2.24995 15.75V18C2.24332 18.1002 2.25818 18.2007 2.29352 18.2947C2.32887 18.3887 2.38389 18.474 2.4549 18.545C2.52591 18.6161 2.61128 18.6711 2.70528 18.7064C2.79928 18.7418 2.89974 18.7566 2.99995 18.75H8.24995C8.24995 19.7446 8.64504 20.6984 9.3483 21.4016C10.0516 22.1049 11.0054 22.5 12 22.5C12.9945 22.5 13.9483 22.1049 14.6516 21.4016C15.3549 20.6984 15.7499 19.7446 15.7499 18.75H20.9999C21.1002 18.7566 21.2006 18.7418 21.2946 18.7064C21.3886 18.6711 21.474 18.6161 21.545 18.545C21.616 18.474 21.671 18.3887 21.7064 18.2947C21.7417 18.2007 21.7566 18.1002 21.7499 18V15.75C21.7526 15.6514 21.7339 15.5535 21.695 15.4628C21.6562 15.3722 21.5982 15.2911 21.525 15.225ZM12 21C11.4032 21 10.8309 20.7629 10.409 20.341C9.987 19.919 9.74995 19.3467 9.74995 18.75H14.2499C14.2499 19.3467 14.0129 19.919 13.5909 20.341C13.169 20.7629 12.5967 21 12 21ZM20.2499 17.25H3.74995V16.05L5.77495 14.025C5.84815 13.9589 5.90617 13.8778 5.94501 13.7872C5.98385 13.6965 6.0026 13.5986 5.99995 13.5V9.75C5.99995 8.1587 6.63209 6.63258 7.75731 5.50736C8.88253 4.38214 10.4087 3.75 12 3.75C13.5912 3.75 15.1174 4.38214 16.2426 5.50736C17.3678 6.63258 17.9999 8.1587 17.9999 9.75V13.5C17.9973 13.5986 18.016 13.6965 18.0549 13.7872C18.0937 13.8778 18.1517 13.9589 18.2249 14.025L20.2499 16.05V17.25Z" fill="white"/>
</svg>
