<svg width="16" height="16" viewBox="0 0 16 16" fill="none" xmlns="http://www.w3.org/2000/svg">
<path d="M14.35 10.15L13 8.8V6.5C12.9984 5.25839 12.5381 4.06114 11.7075 3.13826C10.8769 2.21537 9.73457 1.63193 8.49999 1.5V0.5H7.49999V1.5C6.26882 1.64035 5.13154 2.2263 4.30259 3.14735C3.47365 4.06839 3.01033 5.2609 2.99999 6.5V8.8L1.64999 10.15C1.60119 10.194 1.56251 10.2481 1.53661 10.3086C1.51072 10.369 1.49822 10.4343 1.49999 10.5V12C1.49557 12.0668 1.50547 12.1338 1.52904 12.1964C1.5526 12.2591 1.58928 12.316 1.63662 12.3634C1.68396 12.4107 1.74087 12.4474 1.80354 12.471C1.86621 12.4945 1.93318 12.5044 1.99999 12.5H5.49999C5.49999 13.163 5.76338 13.7989 6.23222 14.2678C6.70106 14.7366 7.33695 15 7.99999 15C8.66303 15 9.29891 14.7366 9.76775 14.2678C10.2366 13.7989 10.5 13.163 10.5 12.5H14C14.0668 12.5044 14.1338 12.4945 14.1964 12.471C14.2591 12.4474 14.316 12.4107 14.3634 12.3634C14.4107 12.316 14.4474 12.2591 14.4709 12.1964C14.4945 12.1338 14.5044 12.0668 14.5 12V10.5C14.5018 10.4343 14.4893 10.369 14.4634 10.3086C14.4375 10.2481 14.3988 10.194 14.35 10.15ZM7.99999 14C7.60216 14 7.22063 13.842 6.93933 13.5607C6.65802 13.2794 6.49999 12.8978 6.49999 12.5H9.49999C9.49999 12.8978 9.34195 13.2794 9.06065 13.5607C8.77934 13.842 8.39781 14 7.99999 14ZM13.5 11.5H2.49999V10.7L3.84999 9.35C3.89879 9.30596 3.93747 9.25187 3.96336 9.19145C3.98926 9.13103 4.00175 9.06571 3.99999 9V6.5C3.99999 5.43913 4.42141 4.42172 5.17156 3.67157C5.92171 2.92143 6.93912 2.5 7.99999 2.5C9.06085 2.5 10.0783 2.92143 10.8284 3.67157C11.5786 4.42172 12 5.43913 12 6.5V9C11.9982 9.06571 12.0107 9.13103 12.0366 9.19145C12.0625 9.25187 12.1012 9.30596 12.15 9.35L13.5 10.7V11.5Z" fill="white"/>
</svg>
