<svg width="14" height="14" viewBox="0 0 14 14" fill="none" xmlns="http://www.w3.org/2000/svg">
<path d="M9.62501 6.125C9.01004 6.12518 8.40614 6.28861 7.87501 6.59859V3.9375C7.87501 3.12527 7.55235 2.34632 6.97802 1.77199C6.40369 1.19766 5.62473 0.875 4.81251 0.875C4.00028 0.875 3.22132 1.19766 2.64699 1.77199C2.07266 2.34632 1.75001 3.12527 1.75001 3.9375V10.0625C1.74873 10.6867 1.93861 11.2963 2.29411 11.8094C2.64962 12.3224 3.15369 12.7144 3.73856 12.9324C4.32342 13.1505 4.96104 13.1842 5.56565 13.0291C6.17027 12.874 6.7129 12.5375 7.12058 12.0648C7.52345 12.4784 8.0224 12.7858 8.57292 12.9596C9.12345 13.1335 9.70845 13.1684 10.2757 13.0612C10.843 12.9541 11.375 12.7082 11.8242 12.3456C12.2734 11.9829 12.6259 11.5147 12.8502 10.9827C13.0744 10.4507 13.1636 9.87153 13.1097 9.29673C13.0558 8.72192 12.8604 8.1694 12.5411 7.68843C12.2218 7.20746 11.7884 6.81298 11.2796 6.54019C10.7707 6.2674 10.2023 6.12476 9.62501 6.125ZM4.81251 1.75C5.39246 1.75068 5.94846 1.98137 6.35855 2.39146C6.76864 2.80155 6.99932 3.35755 7.00001 3.9375V6.5625H2.62501V3.9375C2.62569 3.35755 2.85638 2.80155 3.26646 2.39146C3.67655 1.98137 4.23256 1.75068 4.81251 1.75ZM4.81251 12.25C4.23256 12.2493 3.67655 12.0186 3.26646 11.6085C2.85638 11.1985 2.62569 10.6425 2.62501 10.0625V7.4375H6.89719C6.45799 7.98167 6.19288 8.64551 6.13639 9.34253C6.0799 10.0395 6.23465 10.7374 6.58049 11.3452C6.37772 11.6244 6.11194 11.8519 5.80474 12.0091C5.49754 12.1663 5.15759 12.2489 4.81251 12.25ZM9.62501 12.25C9.10583 12.25 8.59831 12.096 8.16663 11.8076C7.73496 11.5192 7.3985 11.1092 7.19982 10.6295C7.00114 10.1499 6.94916 9.62209 7.05044 9.11289C7.15173 8.60369 7.40174 8.13596 7.76885 7.76884C8.13596 7.40173 8.60369 7.15172 9.11289 7.05044C9.62209 6.94915 10.1499 7.00114 10.6296 7.19982C11.1092 7.3985 11.5192 7.73495 11.8076 8.16663C12.0961 8.59831 12.25 9.10582 12.25 9.625C12.2492 10.321 11.9724 10.9882 11.4803 11.4803C10.9882 11.9724 10.321 12.2492 9.62501 12.25Z" fill="#0B6B74"/>
<path d="M10.9375 9.1875H10.0625V8.3125H9.1875V9.1875H8.3125V10.0625H9.1875V10.9375H10.0625V10.0625H10.9375V9.1875Z" fill="#0B6B74"/>
</svg>
