<svg width="16" height="16" viewBox="0 0 16 16" fill="none" xmlns="http://www.w3.org/2000/svg">
<path d="M15 14.295L11.225 10.5C12.1275 9.41112 12.5758 8.01643 12.4769 6.60562C12.3779 5.19482 11.7394 3.87635 10.6937 2.92406C9.64814 1.97177 8.27589 1.45885 6.86201 1.49186C5.44812 1.52486 4.10129 2.10123 3.10126 3.10127C2.10122 4.10131 1.52484 5.44814 1.49184 6.86202C1.45884 8.2759 1.97175 9.64816 2.92404 10.6938C3.87633 11.7394 5.19481 12.378 6.60561 12.4769C8.01641 12.5758 9.4111 12.1275 10.5 11.225L14.295 15L15 14.295ZM2.5 7.00001C2.5 6.11 2.76392 5.23997 3.25839 4.49995C3.75285 3.75993 4.45566 3.18315 5.27792 2.84256C6.10019 2.50196 7.00499 2.41285 7.87791 2.58648C8.75082 2.76011 9.55264 3.1887 10.182 3.81803C10.8113 4.44737 11.2399 5.24919 11.4135 6.12211C11.5872 6.99502 11.4981 7.89982 11.1575 8.72209C10.8169 9.54436 10.2401 10.2472 9.50006 10.7416C8.76004 11.2361 7.89002 11.5 7 11.5C5.80652 11.5 4.66193 11.0259 3.81802 10.182C2.9741 9.33808 2.5 8.19349 2.5 7.00001Z" fill="#878D96"/>
</svg>
