<svg width="24" height="24" viewBox="0 0 24 24" fill="none" xmlns="http://www.w3.org/2000/svg">
<path d="M18.75 17.2501H18.7339C18.5737 17.2464 18.4189 17.1916 18.292 17.0937C18.1652 16.9958 18.073 16.8599 18.0289 16.7059L15.6533 8.39259L14.2024 12.2631C14.1488 12.4061 14.0528 12.5294 13.9273 12.6164C13.8018 12.7034 13.6527 12.75 13.5 12.7501H10.5V11.2501H12.98L15.0476 5.73677C15.1031 5.58903 15.2038 5.46254 15.3353 5.37531C15.4668 5.28807 15.6225 5.24452 15.7802 5.25085C15.9379 5.25718 16.0895 5.31307 16.2137 5.41056C16.3378 5.50806 16.428 5.6422 16.4714 5.79392L18.8049 13.963L20.2888 9.51279C20.3385 9.36347 20.4339 9.23357 20.5616 9.14154C20.6892 9.04951 20.8426 9.00002 21 9.00009H24V10.5001H21.5405L19.4612 16.7374C19.4115 16.8867 19.3161 17.0167 19.1885 17.1087C19.0608 17.2007 18.9074 17.2502 18.75 17.2501Z" fill="white"/>
<path d="M11.25 22.5H9.75V17.25C9.74934 16.6535 9.51208 16.0815 9.09027 15.6597C8.66845 15.2379 8.09654 15.0007 7.5 15H4.5C3.90346 15.0007 3.33155 15.2379 2.90973 15.6597C2.48792 16.0815 2.25066 16.6535 2.25 17.25V22.5H0.75V17.25C0.751171 16.2558 1.14664 15.3027 1.84964 14.5996C2.55265 13.8966 3.5058 13.5012 4.5 13.5H7.5C8.4942 13.5012 9.44735 13.8966 10.1504 14.5996C10.8534 15.3027 11.2488 16.2558 11.25 17.25V22.5Z" fill="white"/>
<path d="M6 6C6.44501 6 6.88002 6.13196 7.25004 6.37919C7.62005 6.62643 7.90843 6.97783 8.07873 7.38896C8.24903 7.8001 8.29359 8.2525 8.20677 8.68895C8.11995 9.12541 7.90566 9.52632 7.59099 9.84099C7.27632 10.1557 6.87541 10.37 6.43896 10.4568C6.0025 10.5436 5.5501 10.499 5.13896 10.3287C4.72783 10.1584 4.37643 9.87004 4.1292 9.50003C3.88196 9.13002 3.75 8.69501 3.75 8.25C3.75 7.65326 3.98705 7.08097 4.40901 6.65901C4.83097 6.23705 5.40326 6 6 6ZM6 4.5C5.25832 4.5 4.5333 4.71993 3.91661 5.13199C3.29993 5.54404 2.81928 6.12971 2.53545 6.81494C2.25162 7.50016 2.17736 8.25416 2.32206 8.98159C2.46675 9.70902 2.8239 10.3772 3.34835 10.9017C3.8728 11.4261 4.54098 11.7833 5.26841 11.9279C5.99584 12.0726 6.74984 11.9984 7.43506 11.7145C8.12029 11.4307 8.70596 10.9501 9.11801 10.3334C9.53007 9.7167 9.75 8.99168 9.75 8.25C9.75 7.25544 9.35491 6.30161 8.65165 5.59835C7.94839 4.89509 6.99456 4.5 6 4.5Z" fill="white"/>
</svg>
