<svg width="24" height="32" viewBox="0 0 24 32" fill="none" xmlns="http://www.w3.org/2000/svg">
<path d="M16 28.5V28C16 27.448 15.552 27 15 27H9C8.448 27 8 27.448 8 28V28.5M3 17C4.56 14.84 6.905 13.25 9.525 12.63C7.405 11.68 5.915 9.55 5.915 7.08C5.915 3.72 8.635 1 11.995 1C15.355 1 18.075 3.72 18.075 7.08C18.075 9.55 16.585 11.68 14.465 12.63C17.085 13.25 19.44 14.84 21 17H3ZM23 17H1V31H23V17ZM12 19V29V19ZM17 25.5V25C17 24.448 16.552 24 16 24H8C7.448 24 7 24.448 7 25V25.5H17ZM17 22.5V22C17 21.448 16.552 21 16 21H8C7.448 21 7 21.448 7 22V22.5H17Z" stroke="black" stroke-width="0.72" stroke-miterlimit="10" stroke-linejoin="round"/>
</svg>
