<svg width="806" height="793" viewBox="0 0 806 793" fill="none" xmlns="http://www.w3.org/2000/svg">
<g style="mix-blend-mode:exclusion" opacity="0.4">
<path d="M584.686 789.666C579.565 776.713 573.992 771.442 565.106 786.353C547.635 816.475 528.659 844.188 513.899 874.913C509.168 883.94 506.865 894.042 507.22 904.227C507.575 914.413 510.575 924.33 515.923 933.006C521.271 941.681 528.784 948.816 537.725 953.708C546.665 958.601 556.723 961.084 566.913 960.912C609.536 960.912 636.196 920.247 620.683 876.569C610.14 847.05 596.434 818.734 584.686 789.666Z" fill="#40D1F2"/>
<path d="M395.218 785.147C389.344 775.358 382.716 773.701 377.897 785.9C364.342 819.939 348.678 853.676 338.286 888.769C335.773 897.426 335.369 906.56 337.107 915.405C338.846 924.251 342.677 932.552 348.28 939.614C353.883 946.676 361.095 952.294 369.313 956C377.531 959.705 386.515 961.389 395.517 960.911C405.48 960.862 415.266 958.274 423.95 953.39C432.634 948.506 439.928 941.489 445.145 933.001C450.361 924.513 453.327 914.835 453.762 904.881C454.196 894.928 452.087 885.027 447.63 876.117C432.87 844.488 412.99 815.42 395.218 785.147Z" fill="#40D1F2"/>
<path d="M481.218 271.414C521.883 271.414 548.089 238.882 529.564 210.115C518.088 194.189 505.506 179.091 491.911 164.931C490.806 163.058 489.232 161.504 487.344 160.425C485.455 159.346 483.318 158.779 481.142 158.779C478.967 158.779 476.83 159.346 474.941 160.425C473.053 161.504 471.479 163.058 470.374 164.931C456.608 179.188 443.73 194.277 431.817 210.115C412.388 239.334 439.197 271.866 481.218 271.414Z" fill="#28AEAD"/>
<path d="M333.313 332.106C361.628 303.189 357.56 261.771 324.124 254.542C304.686 251.463 285.063 249.702 265.387 249.27C255.447 248.517 249.12 252.433 250.325 264.331C250.592 284.086 252.101 303.806 254.843 323.372C261.771 358.163 303.944 362.229 333.313 332.106Z" fill="white"/>
<path d="M210.265 431.362C194.372 442.88 179.276 455.46 165.082 469.015C163.208 470.12 161.654 471.695 160.575 473.583C159.497 475.472 158.929 477.609 158.929 479.785C158.929 481.96 159.497 484.096 160.575 485.985C161.654 487.874 163.208 489.448 165.082 490.553C179.267 504.351 194.362 517.181 210.265 528.959C240.388 548.538 272.92 521.73 272.468 479.709C272.016 437.688 239.032 412.837 210.265 431.362Z" fill="#F45F47"/>
<path d="M264.183 711.041C283.938 710.774 303.658 709.265 323.224 706.523C358.166 699.143 362.232 656.97 332.26 627.601C302.288 598.232 261.925 603.353 254.695 636.789C251.624 656.178 249.862 675.751 249.423 695.377C248.67 705.468 252.586 711.794 264.183 711.041Z" fill="#5FD69A"/>
<path d="M479.707 689.36C439.193 689.36 412.985 721.893 431.359 750.659C442.934 766.551 455.564 781.646 469.163 795.843C475.64 803.524 483.02 805.332 490.551 795.843C504.36 781.625 517.24 766.533 529.108 750.659C548.688 722.194 521.879 688.908 479.707 689.36Z" fill="#28AEAD"/>
<path d="M637.401 706.228C656.788 709.307 676.363 711.068 695.989 711.499C705.929 712.252 712.406 708.336 711.05 696.438C710.908 676.683 709.448 656.959 706.682 637.398C699.151 602.456 657.131 598.39 627.761 628.362C598.392 658.334 603.513 698.999 637.401 706.228Z" fill="white"/>
<path d="M750.66 529.41C766.611 517.966 781.711 505.382 795.844 491.757C803.375 485.28 805.182 477.901 795.844 470.37C781.668 456.515 766.572 443.633 750.66 431.812C720.538 412.233 688.006 439.042 688.458 481.214C688.909 523.385 722.044 547.935 750.66 529.41Z" fill="#F45F47"/>
<path d="M706.231 323.977C709.428 304.601 711.242 285.022 711.654 265.388C711.654 255.448 708.492 248.972 696.593 250.327C676.838 250.469 657.114 251.929 637.553 254.695C602.46 262.075 598.394 304.247 628.516 333.616C658.639 362.985 699.001 357.412 706.231 323.977Z" fill="#5FD69A"/>
<path d="M859.704 661.943C831.54 648.539 801.718 638.297 772.951 625.947C759.999 620.525 752.469 620.676 756.686 637.544C765.12 670.528 771.747 704.265 783.043 736.346C786.073 746.086 791.588 754.869 799.044 761.83C806.5 768.792 815.64 773.692 825.565 776.048C835.489 778.403 845.856 778.134 855.645 775.266C865.434 772.398 874.307 767.03 881.391 759.69C911.363 728.815 901.574 681.372 859.704 661.943Z" fill="#40D1F2"/>
<path d="M737.106 783.485C704.272 771.587 669.632 764.96 635.744 756.224C624.599 753.513 618.724 756.224 623.996 768.875C639.057 802.763 651.106 837.554 669.18 869.635C673.513 877.532 679.674 884.279 687.146 889.311C694.618 894.343 703.186 897.515 712.133 898.561C721.08 899.608 730.149 898.499 738.58 895.327C747.012 892.155 754.563 887.013 760.602 880.328C767.615 873.223 772.695 864.444 775.362 854.824C778.028 845.203 778.192 835.062 775.838 825.36C773.484 815.659 768.692 806.719 761.913 799.39C755.134 792.061 746.595 786.587 737.106 783.485Z" fill="#40D1F2"/>
<path d="M789.819 375.785C776.716 380.906 771.596 386.478 786.506 395.364C815.876 412.835 844.341 431.813 874.915 446.573C883.942 451.304 894.044 453.605 904.229 453.25C914.414 452.895 924.332 449.897 933.007 444.549C941.683 439.2 948.818 431.687 953.711 422.746C958.604 413.806 961.086 403.747 960.914 393.557C960.914 350.934 920.4 324.275 876.572 339.788C847.203 350.783 818.887 364.489 789.819 375.785Z" fill="#40D1F2"/>
<path d="M876.268 513.296C844.639 528.358 816.023 547.937 785.901 565.709C776.111 571.583 774.304 578.21 785.901 583.03C820.09 596.585 853.676 612.249 888.919 622.641C897.569 625.16 906.697 625.567 915.537 623.83C924.377 622.092 932.672 618.259 939.725 612.652C946.777 607.046 952.382 599.83 956.069 591.609C959.756 583.389 961.416 574.404 960.912 565.409C960.891 555.451 958.328 545.663 953.462 536.975C948.597 528.287 941.591 520.986 933.111 515.766C924.632 510.545 914.96 507.578 905.011 507.146C895.063 506.714 885.168 508.831 876.268 513.296Z" fill="#40D1F2"/>
<path d="M637.4 204.092C670.384 195.808 704.122 189.031 736.202 177.885C745.931 174.837 754.698 169.31 761.642 161.846C768.587 154.382 773.47 145.24 775.81 135.317C778.15 125.394 777.866 115.033 774.988 105.253C772.11 95.4724 766.737 86.6101 759.395 79.5363C729.273 49.4139 681.68 59.3543 661.799 101.224C648.395 129.389 638.153 159.21 625.803 187.977C620.079 200.93 620.23 208.46 637.4 204.092Z" fill="#40D1F2"/>
<path d="M769.032 336.931C802.769 321.87 837.712 309.671 869.792 291.748C877.706 287.424 884.465 281.264 889.503 273.785C894.541 266.306 897.711 257.727 898.744 248.769C899.777 239.81 898.643 230.734 895.44 222.305C892.236 213.875 887.056 206.337 880.334 200.326C873.276 193.302 864.539 188.199 854.954 185.499C845.368 182.8 835.253 182.594 825.567 184.903C815.88 187.211 806.944 191.958 799.607 198.69C792.269 205.422 786.773 213.917 783.641 223.37C771.743 256.053 765.117 290.844 756.381 324.732C753.519 336.329 756.983 342.203 769.032 336.931Z" fill="#40D1F2"/>
<path d="M376.24 171.102C381.512 184.205 386.933 189.327 395.819 174.416C413.29 144.294 432.418 116.581 447.178 85.8561C451.873 76.8345 454.146 66.7483 453.773 56.5849C453.4 46.4215 450.394 36.5291 445.051 27.8759C439.707 19.2227 432.208 12.1052 423.288 7.22006C414.368 2.33494 404.331 -0.150642 394.162 0.00706326C351.539 0.00706326 324.881 40.5222 340.395 84.3503C351.239 113.72 364.643 142.034 376.24 171.102Z" fill="#40D1F2"/>
<path d="M565.862 175.621C571.736 185.411 578.213 187.218 583.183 175.621C596.738 141.432 612.402 107.845 622.643 72.602C625.194 63.9629 625.63 54.8375 623.914 45.9949C622.198 37.1522 618.38 28.8516 612.783 21.7934C607.187 14.7352 599.976 9.12609 591.758 5.43928C583.539 1.75246 574.554 0.0960046 565.561 0.60947C555.603 0.629908 545.816 3.19461 537.128 8.06009C528.44 12.9256 521.139 19.9307 515.919 28.4103C510.698 36.8899 507.73 46.5624 507.298 56.5108C506.866 66.4591 508.984 76.3535 513.45 85.2538C528.21 116.28 548.09 145.348 565.862 175.621Z" fill="#40D1F2"/>
<path d="M101.373 299.422C129.537 312.827 159.359 323.068 188.126 335.419C201.078 340.841 208.609 340.69 204.241 323.821C195.958 290.837 189.18 257.1 178.035 225.02C174.987 215.291 169.459 206.524 161.995 199.579C154.531 192.635 145.388 187.752 135.466 185.412C125.543 183.072 115.182 183.355 105.402 186.232C95.6219 189.11 86.7588 194.484 79.6849 201.826C50.0143 231.948 59.5029 279.391 101.373 299.422Z" fill="#40D1F2"/>
<path d="M223.968 177.28C256.65 189.179 291.442 195.805 325.33 204.541C336.475 207.403 342.199 204.541 337.078 191.889C322.017 158.001 309.817 123.21 291.895 91.1297C287.571 83.2159 281.41 76.4561 273.93 71.418C266.451 66.3798 257.872 63.2115 248.914 62.1784C239.955 61.1454 230.88 62.2779 222.451 65.4814C214.021 68.6848 206.483 73.8656 200.472 80.5876C193.455 87.6771 188.369 96.4446 185.7 106.056C183.03 115.667 182.865 125.801 185.221 135.494C187.576 145.187 192.373 154.116 199.156 161.43C205.938 168.745 214.48 174.201 223.968 177.28Z" fill="#40D1F2"/>
<path d="M171.254 584.689C184.207 579.417 189.328 573.845 174.417 564.958C145.199 547.638 116.733 528.51 86.0081 513.75C76.9814 509.019 66.8791 506.718 56.6938 507.072C46.5084 507.427 36.5908 510.426 27.9153 515.774C19.2398 521.122 12.1045 528.636 7.21169 537.576C2.31891 546.517 -0.163451 556.576 0.00834849 566.766C0.00834849 609.389 40.6741 636.047 84.3516 620.534C113.872 610.142 142.186 596.286 171.254 584.689Z" fill="#40D1F2"/>
<path d="M84.8014 447.474C116.279 432.413 145.046 412.834 175.169 395.062C185.109 389.188 186.766 382.711 175.169 377.741C140.98 364.186 107.393 348.522 72.3003 338.13C63.6428 335.617 54.5102 335.214 45.6647 336.952C36.8192 338.691 28.5182 342.522 21.4559 348.124C14.3936 353.727 8.77439 360.939 5.06911 369.157C1.36383 377.375 -0.319986 386.36 0.157489 395.362C0.177927 405.32 2.74263 415.108 7.60811 423.796C12.4736 432.484 19.4783 439.785 27.9578 445.005C36.4374 450.226 46.1104 453.193 56.0588 453.625C66.0072 454.057 75.9011 451.94 84.8014 447.474Z" fill="#40D1F2"/>
<path d="M323.975 756.681C290.841 764.965 257.255 771.743 225.175 782.888C215.435 785.919 206.652 791.432 199.69 798.888C192.729 806.344 187.829 815.485 185.473 825.41C183.117 835.335 183.386 845.702 186.254 855.491C189.122 865.28 194.491 874.153 201.83 881.238C231.953 911.36 279.545 901.419 299.576 859.549C312.981 831.385 323.223 801.564 335.422 772.797C340.995 759.844 340.844 752.313 323.975 756.681Z" fill="#40D1F2"/>
<path d="M192.039 623.841C158.151 638.903 123.36 651.102 91.1287 669.025C83.2416 673.372 76.5088 679.543 71.4914 687.022C66.474 694.501 63.3177 703.071 62.2859 712.018C61.2542 720.965 62.3769 730.028 65.5603 738.452C68.7438 746.877 73.8961 754.418 80.5866 760.447C87.6608 767.466 96.408 772.566 106.002 775.262C115.597 777.959 125.721 778.163 135.416 775.856C145.111 773.549 154.058 768.807 161.41 762.078C168.762 755.35 174.276 746.857 177.43 737.403C189.328 704.721 195.804 669.929 204.54 636.042C207.402 624.445 204.088 618.57 192.039 623.841Z" fill="#40D1F2"/>
</g>
</svg>
